<svg width="23" height="16" viewBox="0 0 23 16" fill="none" xmlns="http://www.w3.org/2000/svg">
<mask id="mask0" style="mask-type:alpha" maskUnits="userSpaceOnUse" x="0" y="0" width="23" height="16">
<rect y="0.693115" width="23" height="15" rx="4" fill="#C4C4C4"/>
</mask>
<g mask="url(#mask0)">
<g clip-path="url(#clip0)">
<path d="M23 0.606201H0V15.7801H23V0.606201Z" fill="#F0F0F0"/>
<path d="M12.9375 0.606079H10.0625V6.77039H0V9.61547H10.0625V15.7798H12.9375V9.61547H23V6.77039H12.9375V0.606079Z" fill="#D80027"/>
<path d="M17.6895 10.8318L22.9999 13.7514V10.8318H17.6895Z" fill="#0052B4"/>
<path d="M14 10.8318L23 15.7797V14.3806L16.545 10.8318H14Z" fill="#0052B4"/>
<path d="M20.6027 15.7797L14 12.1494V15.7797H20.6027Z" fill="#0052B4"/>
<path d="M14 10.8318L23 15.7797V14.3806L16.545 10.8318H14Z" fill="#F0F0F0"/>
<path d="M14 10.8318L23 15.7797V14.3806L16.545 10.8318H14Z" fill="#D80027"/>
<path d="M4.05829 10.8318L0 13.063V10.8318H4.05829Z" fill="#0052B4"/>
<path d="M8.99993 11.4609V15.7797H1.14502L8.99993 11.4609Z" fill="#0052B4"/>
<path d="M6.45496 10.8318L0 14.3806V15.7797L9.00001 10.8318H6.45496Z" fill="#D80027"/>
<path d="M5.31044 5.55398L0 2.6344V5.55398H5.31044Z" fill="#0052B4"/>
<path d="M9.00001 5.555L0 0.607056V2.00621L6.45496 5.555H9.00001Z" fill="#0052B4"/>
<path d="M2.39746 0.606079L9.00017 4.2364V0.606079H2.39746Z" fill="#0052B4"/>
<path d="M9.00001 5.55402L0 0.606079V2.00523L6.45496 5.55402H9.00001Z" fill="#F0F0F0"/>
<path d="M9.00001 5.55402L0 0.606079V2.00523L6.45496 5.55402H9.00001Z" fill="#D80027"/>
<path d="M18.9419 5.55416L23.0002 3.323V5.55416H18.9419Z" fill="#0052B4"/>
<path d="M14 4.92499V0.606201H21.8549L14 4.92499Z" fill="#0052B4"/>
<path d="M16.545 5.55402L23 2.00523V0.606079L14 5.55402H16.545Z" fill="#D80027"/>
</g>
</g>
<defs>
<clipPath id="clip0">
<rect width="23" height="15.2034" fill="white" transform="translate(0 0.591431)"/>
</clipPath>
</defs>
</svg>
