<svg width="23" height="17" viewBox="0 0 23 17" fill="none" xmlns="http://www.w3.org/2000/svg">
<path d="M19 0.693115H4C1.79086 0.693115 0 2.48398 0 4.69311V12.0261C0 14.2353 1.79086 16.0261 4 16.0261H19C21.2091 16.0261 23 14.2353 23 12.0261V4.69312C23 2.48398 21.2091 0.693115 19 0.693115Z" fill="#D80027"/>
<path d="M13.7408 6.59875L14.5312 7.68793L15.8111 7.2729L15.0196 8.36109L15.8098 9.45017L14.5303 9.03357L13.7387 10.1218L13.7395 8.77616L12.46 8.35951L13.74 7.94448L13.7408 6.59875Z" fill="#F0F0F0"/>
<path d="M11.5841 11.0827C10.0806 11.0827 8.86175 9.86384 8.86175 8.36035C8.86175 6.85686 10.0806 5.638 11.5841 5.638C12.0529 5.638 12.494 5.75655 12.8791 5.96521C12.275 5.3744 11.4488 5.00977 10.5371 5.00977C8.6866 5.00977 7.18652 6.50989 7.18652 8.36031C7.18652 10.2107 8.68664 11.7109 10.5371 11.7109C11.4488 11.7109 12.275 11.3462 12.8791 10.7554C12.494 10.9642 12.0529 11.0827 11.5841 11.0827Z" fill="#F0F0F0"/>
</svg>
